# xmcd
#
# Track frame offsets:
#	150
#	18600
#	33630
#	43485
#	54595
#	74035
#	87995
#	101932
#	117315
#	133390
#	149315
#	165602
#	181990
#	195717
#	211097
#	227412
#
# Disc length: 3242
#
# Revision: 1
# Processed by: cddbd v1.5.1PL0 Copyright (c) Steve Scherf et al.
# Submitted via: VisiTrax 2.9.5.181 - For more info visit www.synapsa.com
# Normalized: r0:DSETVAR1
#
DISCID=f70ca810
DTITLE=Various Artist - son of redneck
DYEAR=1900
DGENRE=
TTITLE0=steve earle with the pogues - johnny come lately
TTITLE1=mary chapin carpenter - down at the twist and shout
TTITLE2=joe ely - fingernails
TTITLE3=kd lang - big big love
TTITLE4=nanci griffith - sweet dreams will come
TTITLE5=lyle lovett - if i had a boat
TTITLE6=rodney crowell - brand new rag
TTITLE7=lone justice - ways to be wicked
TTITLE8=steve forbert - running on love
TTITLE9=darden smith - ashes to ashes
TTITLE10=maria mckee - i've forgotten what it was in you
TTITLE11=matraca berg - i've got it bad
TTITLE12=dwight yokam - guitars and cadillacs
TTITLE13=rosanne cash - never be you
TTITLE14=nitty gritty dirt band - you ain't going nowhere
TTITLE15=kt oslin - mary and willi
EXTD=
EXTT0=
EXTT1=
EXTT2=
EXTT3=
EXTT4=
EXTT5=
EXTT6=
EXTT7=
EXTT8=
EXTT9=
EXTT10=
EXTT11=
EXTT12=
EXTT13=
EXTT14=
EXTT15=
PLAYORDER=
